<svg xmlns="http://www.w3.org/2000/svg" width="34.682" height="34.682" viewBox="0 0 34.682 34.682">
  <path id="Path_4332" data-name="Path 4332" d="M1758.31,21.736a4.232,4.232,0,0,1-4.18-4.181,4.232,4.232,0,0,1,4.18-4.181,4.22,4.22,0,0,1,3.6,2.051,4.056,4.056,0,0,1,0,4.181,4.437,4.437,0,0,1-1.55,1.548A3.914,3.914,0,0,1,1758.31,21.736Zm3.561,26.321h-7.2V24.909h7.2Zm26.941,0h-7.2v-11.3c0-.876-.027-1.588-.077-2.128a10.007,10.007,0,0,0-.388-1.859,2.778,2.778,0,0,0-1.122-1.588,3.777,3.777,0,0,0-2.128-.542q-2.557,0-3.446,1.627a9.043,9.043,0,0,0-.891,4.335V48.057h-7.2V24.909h6.968v3.175h.077a6.777,6.777,0,0,1,2.555-2.67,7.812,7.812,0,0,1,4.258-1.124,10.339,10.339,0,0,1,4.375.814,5.692,5.692,0,0,1,2.631,2.4,11.25,11.25,0,0,1,1.239,3.446,24.35,24.35,0,0,1,.349,4.412Z" transform="translate(-1754.129 -13.375)" fill="#fff"/>
</svg>
