<svg id="Group_747" data-name="Group 747" xmlns="http://www.w3.org/2000/svg" width="16.62" height="24.41" viewBox="0 0 16.62 24.41">
  <path id="Path_4532" data-name="Path 4532" d="M26.31,3A8.31,8.31,0,0,0,18,11.31c0,4,4.2,10.317,6.972,14.5.327.491.631.948.9,1.363a.519.519,0,0,0,.434.236h0a.519.519,0,0,0,.431-.231l.519-.779c2.755-4.077,7.359-10.9,7.359-15.09A8.31,8.31,0,0,0,26.31,3Zm0,12.724a4.415,4.415,0,1,1,4.415-4.415A4.415,4.415,0,0,1,26.31,15.724Z" transform="translate(-18 -3)" fill="#131313"/>
</svg>
