<svg xmlns="http://www.w3.org/2000/svg" width="34.201" height="49.764" viewBox="0 0 34.201 49.764">
  <g id="noun_Location_3998190" transform="translate(86.5 48.5)">
    <g id="Group_747" data-name="Group 747" transform="translate(-86 -48)">
      <path id="Path_4532" data-name="Path 4532" d="M34.6,3A16.6,16.6,0,0,0,18,19.6c0,7.984,8.383,20.61,13.929,28.968.654.98,1.261,1.893,1.805,2.724a1.038,1.038,0,0,0,.866.472h0a1.038,1.038,0,0,0,.861-.462L36.5,49.746C42,41.6,51.2,27.968,51.2,19.6A16.6,16.6,0,0,0,34.6,3Zm0,25.419A8.819,8.819,0,1,1,43.419,19.6,8.819,8.819,0,0,1,34.6,28.419Z" transform="translate(-18 -3)" fill="none" stroke="#111" stroke-width="1"/>
    </g>
  </g>
</svg>
