<?xml version="1.0" encoding="utf-8"?>
<!-- Generator: Adobe Illustrator 25.2.0, SVG Export Plug-In . SVG Version: 6.00 Build 0)  -->
<svg version="1.1" id="Layer_1" xmlns="http://www.w3.org/2000/svg" xmlns:xlink="http://www.w3.org/1999/xlink" x="0px" y="0px"
	 viewBox="0 0 132.1 44" style="enable-background:new 0 0 132.1 44;" xml:space="preserve">
<style type="text/css">
	.st0{enable-background:new    ;}
	.st1{fill:none;}
</style>
<g class="st0">
	<path d="M51.3,34.6c0.5-0.1,1-0.2,1.3-0.5c0.3-0.3,0.6-0.7,0.8-1.3c0.2-0.6,0.3-1.4,0.3-2.5V20c0-0.5,0-0.8-0.1-1
		c-0.1-0.2-0.2-0.4-0.4-0.4c-0.2-0.1-0.5-0.1-0.9-0.2V18c0.6,0,1.6,0.1,2.9,0.1c1.3,0,2.3,0,3-0.1v0.4c-0.4,0-0.7,0.1-0.9,0.2
		c-0.2,0.1-0.3,0.2-0.4,0.4c-0.1,0.2-0.1,0.6-0.1,1v7v1.2c0,1.8-0.1,3.1-0.3,3.8c-0.3,0.9-0.8,1.7-1.7,2.2c-0.9,0.6-2,0.9-3.4,0.9
		V34.6z"/>
	<path d="M71.4,18.4c-0.4,0.1-0.7,0.2-0.9,0.3c-0.2,0.2-0.3,0.4-0.4,0.7c-0.1,0.3-0.1,0.8-0.1,1.5v5c0,1.8-0.3,3.2-0.8,4
		c-0.3,0.6-0.8,1-1.5,1.3c-0.6,0.3-1.4,0.5-2.4,0.5c-1.5,0-2.6-0.3-3.4-0.9c-0.6-0.5-1-1.1-1.2-1.8c-0.2-0.7-0.3-1.7-0.3-3v-6
		c0-0.5,0-0.8-0.1-1c-0.1-0.2-0.2-0.4-0.4-0.4c-0.2-0.1-0.5-0.1-0.9-0.2V18c0.6,0,1.6,0.1,3,0.1c1.3,0,2.3,0,3-0.1v0.4
		c-0.5,0-0.8,0.1-1,0.2c-0.2,0.1-0.4,0.2-0.4,0.4c-0.1,0.2-0.1,0.6-0.1,1v7.2c0,1.3,0.2,2.3,0.6,2.9c0.4,0.6,1.1,0.9,2,0.9
		c1.3,0,2.2-0.4,2.7-1.3c0.5-0.9,0.8-2.1,0.8-3.6v-5c0-0.7,0-1.3-0.1-1.6c-0.1-0.4-0.3-0.6-0.5-0.8c-0.3-0.2-0.7-0.3-1.2-0.3V18
		c0.5,0,1.2,0.1,2.1,0.1c0.7,0,1.3,0,1.7-0.1V18.4z"/>
	<path d="M78.7,17.9c0.4,0.1,0.8,0.3,1.2,0.6c0.1,0.1,0.3,0.1,0.4,0.2c0.1,0.1,0.2,0.1,0.3,0.1c0.1,0,0.2-0.1,0.3-0.2
		c0.1-0.1,0.1-0.3,0.2-0.6h0.4c-0.1,0.8-0.1,2.3-0.1,4.3h-0.4c-0.1-0.7-0.2-1.3-0.5-2c-0.3-0.6-0.6-1.1-1.1-1.5
		c-0.5-0.4-1-0.6-1.7-0.6c-0.6,0-1.1,0.2-1.5,0.5c-0.4,0.3-0.6,0.8-0.6,1.4c0,0.4,0.1,0.8,0.3,1.2c0.2,0.3,0.5,0.6,0.8,0.9
		c0.3,0.3,0.9,0.6,1.6,1.1l0.6,0.4c0.7,0.5,1.3,0.9,1.8,1.3s0.8,0.8,1.1,1.3c0.3,0.5,0.4,1.1,0.4,1.7c0,0.8-0.2,1.5-0.6,2
		s-1,1-1.7,1.2c-0.7,0.3-1.5,0.4-2.4,0.4c-0.7,0-1.3-0.1-1.8-0.2c-0.5-0.1-0.9-0.3-1.3-0.5c-0.3-0.2-0.5-0.3-0.6-0.3
		c-0.1,0-0.2,0.1-0.3,0.2c-0.1,0.1-0.1,0.3-0.2,0.6h-0.4c0.1-0.8,0.1-2.5,0.1-5.1h0.4c0.1,1.4,0.4,2.6,1,3.4
		c0.5,0.9,1.4,1.3,2.5,1.3c0.7,0,1.2-0.2,1.7-0.6c0.4-0.4,0.7-0.9,0.7-1.6c0-0.7-0.2-1.3-0.7-1.8s-1.2-1.1-2.2-1.7
		c-0.8-0.5-1.4-0.9-1.8-1.3c-0.5-0.4-0.8-0.8-1.1-1.3s-0.4-1.1-0.4-1.7c0-0.8,0.2-1.4,0.6-1.9s0.9-0.9,1.5-1.2
		c0.6-0.3,1.4-0.4,2.1-0.4C77.8,17.7,78.3,17.8,78.7,17.9z"/>
	<path d="M94.9,21.2c0,0.6,0,1.1,0.1,1.4h-0.4c-0.3-1.6-0.7-2.7-1.2-3.3c-0.5-0.6-1.2-0.9-2.2-0.9h-0.4v10.8c0,0.5,0.1,0.9,0.2,1.2
		c0.1,0.2,0.3,0.4,0.6,0.5c0.3,0.1,0.7,0.1,1.3,0.1v0.4c-1.6,0-2.8-0.1-3.6-0.1c-0.8,0-2,0-3.5,0.1v-0.4c0.6,0,1-0.1,1.3-0.1
		s0.5-0.2,0.6-0.5s0.2-0.6,0.2-1.2V18.4h-0.4c-0.6,0-1.1,0.1-1.5,0.4c-0.4,0.3-0.8,0.7-1.1,1.3c-0.3,0.6-0.6,1.5-0.8,2.5h-0.4
		c0-0.4,0.1-0.8,0.1-1.4c0-1,0-2-0.1-3.2c1.2,0,3.1,0.1,5.9,0.1s4.7,0,5.9-0.1C94.9,19.2,94.9,20.3,94.9,21.2z"/>
	<path d="M108.2,18.4c-0.4,0.1-0.7,0.2-0.9,0.3c-0.2,0.2-0.3,0.4-0.4,0.7c-0.1,0.3-0.1,0.8-0.1,1.5v5c0,1.8-0.3,3.2-0.8,4
		c-0.3,0.6-0.8,1-1.5,1.3c-0.6,0.3-1.4,0.5-2.4,0.5c-1.5,0-2.6-0.3-3.4-0.9c-0.6-0.5-1-1.1-1.2-1.8c-0.2-0.7-0.3-1.7-0.3-3v-6
		c0-0.5,0-0.8-0.1-1c-0.1-0.2-0.2-0.4-0.4-0.4c-0.2-0.1-0.5-0.1-0.9-0.2V18c0.6,0,1.6,0.1,3,0.1c1.3,0,2.3,0,3-0.1v0.4
		c-0.5,0-0.8,0.1-1,0.2s-0.4,0.2-0.4,0.4c-0.1,0.2-0.1,0.6-0.1,1v7.2c0,1.3,0.2,2.3,0.6,2.9s1.1,0.9,2,0.9c1.3,0,2.2-0.4,2.7-1.3
		c0.5-0.9,0.8-2.1,0.8-3.6v-5c0-0.7,0-1.3-0.1-1.6c-0.1-0.4-0.3-0.6-0.5-0.8c-0.3-0.2-0.7-0.3-1.2-0.3V18c0.5,0,1.2,0.1,2.1,0.1
		c0.7,0,1.3,0,1.7-0.1V18.4z"/>
	<path d="M115.6,17.9c0.4,0.1,0.8,0.3,1.2,0.6c0.1,0.1,0.3,0.1,0.4,0.2c0.1,0.1,0.2,0.1,0.3,0.1c0.1,0,0.2-0.1,0.3-0.2
		c0.1-0.1,0.1-0.3,0.2-0.6h0.4c-0.1,0.8-0.1,2.3-0.1,4.3h-0.4c-0.1-0.7-0.2-1.3-0.5-2c-0.3-0.6-0.6-1.1-1.1-1.5
		c-0.5-0.4-1-0.6-1.7-0.6c-0.6,0-1.1,0.2-1.5,0.5c-0.4,0.3-0.6,0.8-0.6,1.4c0,0.4,0.1,0.8,0.3,1.2c0.2,0.3,0.5,0.6,0.8,0.9
		c0.3,0.3,0.9,0.6,1.6,1.1l0.6,0.4c0.7,0.5,1.3,0.9,1.8,1.3s0.8,0.8,1.1,1.3c0.3,0.5,0.4,1.1,0.4,1.7c0,0.8-0.2,1.5-0.6,2
		s-1,1-1.7,1.2c-0.7,0.3-1.5,0.4-2.4,0.4c-0.7,0-1.3-0.1-1.8-0.2c-0.5-0.1-0.9-0.3-1.3-0.5c-0.3-0.2-0.5-0.3-0.6-0.3
		c-0.1,0-0.2,0.1-0.3,0.2c-0.1,0.1-0.1,0.3-0.2,0.6h-0.4c0.1-0.8,0.1-2.5,0.1-5.1h0.4c0.1,1.4,0.4,2.6,1,3.4
		c0.5,0.9,1.4,1.3,2.5,1.3c0.7,0,1.2-0.2,1.7-0.6c0.4-0.4,0.7-0.9,0.7-1.6c0-0.7-0.2-1.3-0.7-1.8s-1.2-1.1-2.2-1.7
		c-0.8-0.5-1.4-0.9-1.8-1.3c-0.5-0.4-0.8-0.8-1.1-1.3s-0.4-1.1-0.4-1.7c0-0.8,0.2-1.4,0.6-1.9s0.9-0.9,1.5-1.2
		c0.6-0.3,1.4-0.4,2.1-0.4C114.6,17.7,115.2,17.8,115.6,17.9z"/>
</g>
<g id="Group_742" transform="translate(297.945 179.379)">
	<g id="Path_4523">
		<path d="M-274-158.7v0.2l0,0.2c-0.2,1.2-0.9,2.3-1.8,3.1c-0.9-0.8-1.6-1.8-1.9-3l0-0.2l0-0.1c0-0.1,0-0.2,0-0.3c0-0.1,0-0.2,0-0.3
			c0.2-1.2,0.8-2.4,1.8-3.2c1,0.8,1.6,1.9,1.9,3.1v0C-274-159-274-158.9-274-158.7z"/>
	</g>
</g>
<g id="Path_4524">
	<path d="M42,27.4c-0.2,1.5-0.6,3-1.2,4.4c-0.8,2.1-1.9,4-3.2,5.8c0,0.2-0.1,0.3-0.1,0.5c-0.1,0.3-0.2,0.6-0.4,0.9
		c-0.3,0.6-0.7,1.1-1.2,1.6c-2,1.9-4.9,2.5-7.5,1.6c-0.3-0.1-0.6-0.3-0.9-0.4c-0.3-0.2-0.5-0.4-0.8-0.6c-0.2-0.2-0.5-0.4-0.7-0.7
		c-0.2-0.3-0.4-0.5-0.5-0.8c0.3,0,0.6,0,0.9,0c0.3,0,0.6,0,0.9,0s0.6,0,0.8,0c0.3,0,0.5,0,0.8,0c1-0.1,1.9-0.2,2.8-0.4
		c0.9-0.2,1.9-0.5,2.8-0.8c0.2-0.1,0.5-0.2,0.7-0.3c0.2-0.1,0.5-0.2,0.7-0.3s0.5-0.2,0.8-0.4c0.2-0.1,0.5-0.3,0.8-0.4
		c1.1-1.7,2-3.6,2.6-5.6c0.4-1.4,0.7-2.8,0.9-4.3c0.2-1.5,0.2-2.9,0.1-4.4c-1-12.2-11.4-21.4-23.6-20.8c-2.9,0.1-5.8,0.8-8.5,2
		c-2.7,1.2-5.2,3-7.2,5.1c1.9-2.4,4.2-4.3,6.9-5.7c1.3-0.7,2.8-1.3,4.2-1.7c1.5-0.4,3-0.7,4.5-0.8c3.1-0.2,6.2,0.1,9.1,1.1
		C32.5,4,37.3,8.3,40.1,14C42.1,18.1,42.8,22.8,42,27.4L42,27.4z"/>
</g>
<g id="Path_4525">
	<path d="M31.1,16.4c-1.6-1.4-3.4-2.5-5.4-3.2c-1-0.4-2-0.6-3-0.8c-3.1-0.5-6.2-0.1-9,1.1c-3.8,1.6-6.8,4.6-8.4,8.4
		c-0.8,1.9-1.2,3.9-1.3,6c-0.1,3.4,0.9,6.7,2.7,9.5c0.2,0.1,0.4,0.2,0.6,0.3C7.4,37.8,7.7,37.9,8,38s0.5,0.2,0.8,0.3
		s0.5,0.2,0.7,0.3c0.9,0.3,1.8,0.6,2.8,0.7c0.9,0.2,1.9,0.3,2.9,0.3c0.2,0,0.5,0,0.8,0c0.3,0,0.5,0,0.8,0s0.6,0,0.9,0
		c0.3,0,0.6-0.1,0.9-0.1c-0.1,0.3-0.3,0.6-0.5,0.8c-0.2,0.3-0.4,0.5-0.7,0.7c-0.5,0.4-1.1,0.8-1.7,1c-2.6,1-5.5,0.5-7.5-1.4
		c-0.2-0.2-0.5-0.5-0.7-0.7c-0.2-0.3-0.4-0.5-0.5-0.8c-0.1-0.3-0.3-0.6-0.4-0.9c-0.1-0.2-0.1-0.4-0.1-0.7c-0.8-1-1.5-2.1-2.1-3.3
		C2,29.2,2.4,23.2,5.5,18.5c1.2-1.9,2.8-3.5,4.7-4.7c0.9-0.6,1.9-1.1,2.9-1.5c3.1-1.2,6.5-1.5,9.7-0.8c1.1,0.2,2.1,0.6,3.1,1.1
		C28,13.5,29.7,14.8,31.1,16.4z"/>
</g>
<g id="Group_743" transform="translate(292.073 187.225)">
	<g id="Line_26">
		<line class="st1" x1="-277.8" y1="-161.4" x2="-262.2" y2="-161.4"/>
	</g>
	<g id="Path_4526">
		<path d="M-277.8-161.4c0.6-0.2,1.3-0.3,1.9-0.4c0.6-0.1,1.3-0.2,1.9-0.3c1.3-0.1,2.6-0.2,3.9-0.2c1.3,0,2.6,0.1,3.9,0.2
			c0.6,0.1,1.3,0.2,1.9,0.3c0.7,0.1,1.3,0.3,1.9,0.4c-0.6,0.2-1.3,0.3-1.9,0.4c-0.6,0.1-1.3,0.2-1.9,0.3c-1.3,0.1-2.6,0.2-3.9,0.2
			c-1.3,0-2.6-0.1-3.9-0.2c-0.6-0.1-1.3-0.2-1.9-0.3C-276.5-161.1-277.1-161.2-277.8-161.4z"/>
	</g>
</g>
<g id="Path_4527">
	<path d="M14.2,26l4.1,12.4l-4.1-9.1L7.1,37L14.2,26z"/>
</g>
<g id="Path_4528">
	<path d="M30.1,25.8l-4.7,12.6l4.7-9.2l6.9,7.6L30.1,25.8z"/>
</g>
</svg>
