<svg xmlns="http://www.w3.org/2000/svg" width="132.748" height="53.803" viewBox="0 0 132.748 53.803">
  <g id="Group_721" data-name="Group 721" transform="translate(-238.512 -170.735)">
    <text id="JUSTUS" transform="translate(301.26 205.594)" fill="#fff" font-size="18" font-family="Montserrat-Regular, Montserrat"><tspan x="0" y="0">JUSTUS</tspan></text>
    <path id="Path_4487" data-name="Path 4487" d="M290.952,320.066a8.376,8.376,0,0,1-7.066-.253,4.075,4.075,0,0,1-2.039-2.063.794.794,0,0,1-.02-.584q2.337-4.622,4.706-9.23a.681.681,0,0,1,.063-.084c.018.018.038.034.056.052-1.448,3.128-2.9,6.254-4.373,9.442H293.1l-4.235-9.151c.027-.013.052-.027.077-.041.079.135.167.264.237.4,1.432,2.812,2.855,5.626,4.3,8.428a.9.9,0,0,1-.011.932A4.677,4.677,0,0,1,290.952,320.066Z" transform="translate(-35.493 -112.481)" fill="#fff"/>
    <path id="Path_4488" data-name="Path 4488" d="M435.145,317.952a4.545,4.545,0,0,1-2.273,2.05,8.378,8.378,0,0,1-7.119-.039,4.225,4.225,0,0,1-2.237-2.149.775.775,0,0,1-.031-.586c1.517-3,3.053-6,4.585-8.993a.146.146,0,0,1,.038-.036l.07.047c-1.4,3.031-2.808,6.062-4.237,9.149h10.823l-4.371-9.444.07-.039c.092.164.189.325.275.492,1.466,2.873,2.925,5.748,4.4,8.615A.9.9,0,0,1,435.145,317.952Z" transform="translate(-151.702 -112.53)" fill="#fff"/>
    <path id="Path_4489" data-name="Path 4489" d="M307,258.87c.011-4.711.005-18.406.005-23.117a2.1,2.1,0,0,0-2.889-2.228,15.089,15.089,0,0,0-4.179,2A28.413,28.413,0,0,1,297.492,237a3.922,3.922,0,0,1-5.692-1.95,20.922,20.922,0,0,1-.738-2.071c.041-.018.084-.036.126-.056.068.106.133.212.2.316a14.5,14.5,0,0,0,1,1.427,3.06,3.06,0,0,0,3.642.913,15.628,15.628,0,0,0,2.487-1.375c.58-.365,1.09-.839,1.646-1.243a7.6,7.6,0,0,1,4.761-1.556h.006a.035.035,0,0,0,.014,0c2.217.1,2.9.846,2.9.846.789-.866,3.237-.839,3.579-.832l.039,0a8.308,8.308,0,0,1,4.571,1.91,19.546,19.546,0,0,0,2.649,1.831c2.246,1.234,4.01.72,5.347-1.463.155-.253.295-.516.462-.809a4.784,4.784,0,0,1-3.858,4.639,3.744,3.744,0,0,1-2.3-.465c-.882-.478-1.739-1-2.585-1.543a15.15,15.15,0,0,0-4.231-2.016,2.088,2.088,0,0,0-2.837,2.19c0,4.975.217,18,.294,22.974Z" transform="translate(-43.107 -49.771)" fill="#fff"/>
    <g id="Group_711" data-name="Group 711" transform="translate(238.512 173.114)">
      <path id="Path_4490" data-name="Path 4490" d="M265.848,219.767a10.864,10.864,0,0,1-6.838,10.757,11.186,11.186,0,0,1-10.473-.772,16.87,16.87,0,0,1-5.55-5.412l-.634-.979a26.045,26.045,0,0,1,18.465-39.386,6.015,6.015,0,0,0-.135.782,4.367,4.367,0,0,0-.031.521v.02a5.9,5.9,0,0,0,.056.7,24.066,24.066,0,0,0-16.677,36.323l.645,1a14.751,14.751,0,0,0,4.864,4.738,9.168,9.168,0,0,0,8.687.659,8.9,8.9,0,0,0,5.665-8.75c0-.02,0-.034,0-.043v-.011a1.031,1.031,0,0,1,.864-1.087.987.987,0,0,1,1.087.872C265.842,219.7,265.844,219.724,265.848,219.767Z" transform="translate(-238.512 -183.974)" fill="#fff"/>
      <path id="Path_4491" data-name="Path 4491" d="M411.529,209.874A25.993,25.993,0,0,1,397.656,232.9c-.266.147-3.579,1.923-10.628,2.627a.784.784,0,0,1-.092,0,.987.987,0,0,1-.088-1.971c6.7-.71,9.828-2.375,9.859-2.391l.018-.011a24.064,24.064,0,0,0-7.131-44.99,5.514,5.514,0,0,0,.032-.573v-.022a5.451,5.451,0,0,0-.1-.922c-.032-.176-.07-.349-.117-.516A26.075,26.075,0,0,1,411.529,209.874Z" transform="translate(-359.459 -184.105)" fill="#fff"/>
    </g>
    <g id="Group_712" data-name="Group 712" transform="translate(262.628 170.735)">
      <path id="Path_4492" data-name="Path 4492" d="M376.807,174.614c0,.016,0,.034,0,.052l-.029.031v.334a5.512,5.512,0,0,1-1.928,3.288,6,6,0,0,1-2.027-3.159l0-.268v-.047l-.061-.061a3.748,3.748,0,0,1-.025-.379,2.622,2.622,0,0,1,.018-.3,4.3,4.3,0,0,1,.318-1.213,6.181,6.181,0,0,1,1.622-2.16,6.642,6.642,0,0,1,1.7,2.17,4.567,4.567,0,0,1,.352,1.109l0,.018A3.525,3.525,0,0,1,376.807,174.614Z" transform="translate(-372.732 -170.735)" fill="#fff"/>
    </g>
  </g>
</svg>
