<svg xmlns="http://www.w3.org/2000/svg" width="71.6" height="63.541" viewBox="0 0 71.6 63.541">
  <path id="Path_4536" data-name="Path 4536" d="M1105.409,473.209h-2.622l-7.893-14.622a4.56,4.56,0,0,0-1.884-7.464v-16h1.777v.193a1.436,1.436,0,0,0,1.493,1.38,1.451,1.451,0,0,0,1.38-1.4v-.178h4.716a3.183,3.183,0,0,0,0-6.362h-4.716V428.1a1.45,1.45,0,0,0-1.5-1.379,1.433,1.433,0,0,0-1.375,1.4v.644h-1.777V428.1a1.438,1.438,0,0,0-1.5-1.376,1.445,1.445,0,0,0-1.377,1.393v.644h-7.77v-1.778a4.1,4.1,0,0,0-6.257-3.479,4.1,4.1,0,0,0-6.327,0,4.1,4.1,0,0,0-5.409.985q-.059.078-.114.159a4.1,4.1,0,0,0-6.05,3.6v.514h-6.255V428.1a1.437,1.437,0,0,0-2.873.015v.644h-1.771V428.1a1.437,1.437,0,0,0-2.873.017v.644h-4.721a3.183,3.183,0,0,0,0,6.362h4.718v.193a1.437,1.437,0,0,0,1.494,1.38,1.452,1.452,0,0,0,1.38-1.4v-.178h1.776v16a4.566,4.566,0,0,0-2.988,5.459,4.509,4.509,0,0,0,1.1,2.005l-7.893,14.622h-2.622a1.438,1.438,0,0,0-1.438,1.436,7.332,7.332,0,0,0,7.325,7.322h15.9a7.233,7.233,0,0,0,1.464-.15v3.731h2.873V480.54a7.316,7.316,0,0,0,2.985-5.9,1.438,1.438,0,0,0-1.435-1.438h-1.55v-6.314h16.477v6.316h-1.55a1.437,1.437,0,0,0-1.435,1.436,7.305,7.305,0,0,0,2.985,5.9v5.008h2.873v-3.729a7.264,7.264,0,0,0,1.465.15h15.9a7.345,7.345,0,0,0,7.322-7.323A1.44,1.44,0,0,0,1105.409,473.209Zm-56.323-41.574v.615h-1.776v-.615Zm27.959.61v-5.305a1.225,1.225,0,0,1,2.45.043v5.262Zm20.615.005v-.615h4.7a.309.309,0,0,1,.019.615Zm-4.649,0v-.615h1.776v.615Zm-41.055,0v-.615h6.255v.615Zm16.487,3.757a1.2,1.2,0,0,1-.885.308,1.219,1.219,0,0,1-1.153-1.178v-8.153a1.223,1.223,0,0,1,2.445-.051v8.232A1.212,1.212,0,0,1,1068.442,436.007Zm13.925-3.762v-.61h7.77v.615Zm17.156,46.849h-15.9a4.49,4.49,0,0,1-4.211-3.012h13.573v-2.873h-9.362l7.153-13.252a4.563,4.563,0,0,0,1.589,0l7.158,13.252H1098.1a1.437,1.437,0,0,0,0,2.873h5.631A4.426,4.426,0,0,1,1099.523,479.094Zm-7.956-25.725.005.4a1.7,1.7,0,0,1,.007,3.392h0a1.7,1.7,0,0,1-.007-3.392l0-.4Zm-12.281,6.665v3.986h-16.477v-3.986Zm-27.571-3.374a1.679,1.679,0,0,1-1.193.493h0a1.691,1.691,0,1,1,1.2-.493Zm-1.984,3.3a4.563,4.563,0,0,0,1.589,0l7.153,13.252h-15.9Zm11.347-20.389v-1.779a4.1,4.1,0,0,0,3.182-.31,4.089,4.089,0,0,0,5.338,1.252q.134-.073.265-.157a4.105,4.105,0,0,0,5.275.767,5.893,5.893,0,0,0,2.424,1.013,9.5,9.5,0,0,0-5.792,8.728,1.437,1.437,0,1,0,2.873,0,6.623,6.623,0,0,1,6.615-6.6,1.44,1.44,0,0,0,1.438-1.438V439a1.439,1.439,0,0,0-1.438-1.435h-2.7a3.023,3.023,0,0,1-2.966-2.444c2.9,0,5.8,0,8.674,0a1.221,1.221,0,0,1,1.16,1.217v4.178c0,4.134-2.3,6.767-5.323,9.785a9.922,9.922,0,0,0-2.77,6.86h-12.663a11.138,11.138,0,0,0-2.034-6.193,9.838,9.838,0,0,1-1.559-5.321,1.437,1.437,0,0,0-2.873,0,12.665,12.665,0,0,0,2.036,6.9,8.406,8.406,0,0,1,1.555,4.607h-.425a1.438,1.438,0,0,0-1.436,1.438v11.275l-6.094-11.287a4.563,4.563,0,0,0-1.886-7.464v-16h6.25v4.444a1.437,1.437,0,0,0,2.873,0Zm19.644,17.593h-.524a6.842,6.842,0,0,1,1.938-4.833c3.117-3.115,6.161-6.593,6.161-11.807V436.34a4.113,4.113,0,0,0-.186-1.217h2.023v16a4.573,4.573,0,0,0-2.988,5.46h0a4.543,4.543,0,0,0,1.1,2l-6.092,11.286V458.6A1.439,1.439,0,0,0,1080.722,457.16Zm-6.548-24.772a2.319,2.319,0,0,0-1.507,2.16,5.889,5.889,0,0,0,.566,2.516,1.242,1.242,0,0,1-1.338-.585,1.215,1.215,0,0,1-.169-.6v-9.772a1.225,1.225,0,0,1,1.225-1.222h.076a1.232,1.232,0,0,1,1.146,1.222Zm-10.646,1.539a1.224,1.224,0,1,1-2.447-.045V428.24a1.222,1.222,0,0,1,1.2-1.244h.019a1.224,1.224,0,0,1,1.224,1.2Zm-.845,42.155a4.426,4.426,0,0,1-4.212,3.012h-15.9a4.431,4.431,0,0,1-4.214-3.012Zm-18.247-44.447v.615h-4.7a.311.311,0,0,1-.294-.324.3.3,0,0,1,.272-.292Z" transform="translate(-1035.247 -422.008)" fill="#131313"/>
</svg>
