<svg xmlns="http://www.w3.org/2000/svg" width="683" height="740" viewBox="0 0 683 740">
  <g id="Group_833" data-name="Group 833" transform="translate(0 -5295)">
    <rect id="Rectangle_1188" data-name="Rectangle 1188" width="683" height="740" transform="translate(0 5295)" fill="#fff"/>
    <g id="Group_765" data-name="Group 765" transform="translate(-92.007 1203.428)">
      <text id="Loyalty" transform="translate(336.074 4415.864)" fill="#131313" font-size="20" font-family="Muli-Bold, Muli" font-weight="700"><tspan x="-34.85" y="0">Loyalty</tspan></text>
      <g id="noun_hand_shake_3393851" data-name="noun_hand shake_3393851" transform="translate(286.006 4290.997)">
        <g id="Group_706" data-name="Group 706" transform="translate(0 0)">
          <path id="Path_4474" data-name="Path 4474" d="M96.8,46.542,77.267,27.158l7.369-7.32,19.538,19.386ZM86.356,51.82a7.358,7.358,0,0,0-2.084,3.918c-.79,4.367-4.063,7.065-7.222,10.2l-1.281,1.271-.164-.163-.454-.455L65.141,56.65a9.917,9.917,0,0,0,.993-.067,20.942,20.942,0,0,0,4.62-1.1,1.567,1.567,0,0,0,.866-2.049,1.584,1.584,0,0,0-2.063-.86c-4.073,1.654-6.886,1.144-11.374-2.831l-.084-.083-.05-.048-1.332-1.325,2.568-2.543a1.563,1.563,0,0,0,0-2.222,1.589,1.589,0,0,0-2.237,0L53.364,47.17l0,0,0,0-7.4,7.354a3.2,3.2,0,0,1-4.5,0,3.145,3.145,0,0,1,0-4.469L53.242,38.352A10.551,10.551,0,0,1,64.99,36.231a8.171,8.171,0,0,0,9.067-1.6l3.185-3.051,14.82,14.69ZM74.521,73.439a2.159,2.159,0,0,1-3.046,0L57.7,59.751a1.589,1.589,0,0,0-2.237,0,1.563,1.563,0,0,0,0,2.222L70.7,77.113a2.133,2.133,0,0,1,0,3.027,2.169,2.169,0,0,1-3.05,0L64.584,77.1l-.047-.048-.016-.013L49.927,62.484a1.591,1.591,0,0,0-2.238,0,1.563,1.563,0,0,0,0,2.222L62.5,79.42a2.13,2.13,0,0,1-.021,3,2.167,2.167,0,0,1-3.046,0L46.359,69.451a1.591,1.591,0,0,0-2.239,0,1.563,1.563,0,0,0,0,2.222l9.291,9.269.008.01a2.1,2.1,0,0,1,.631,1.509,2.126,2.126,0,0,1-.632,1.515,2.149,2.149,0,0,1-1.524.628l-.407-.04a5.669,5.669,0,0,0-5.631-6.494l-.126,0,0-.034,0-.086-.006-.241v-.019l-.031-.369v-.008l-.051-.35-.006-.034-.076-.352a5.689,5.689,0,0,0-5.526-4.28l-.246.006,0-.182a5.675,5.675,0,0,0-5.7-5.655l-.13,0,.008-.289a5.671,5.671,0,0,0-5.467-5.647,34.262,34.262,0,0,1-1.782-6.652c-.3-1.578-1.614-2.893-2.773-4.042l-3.325-3.294,15.61-15.457,4.216,4.189a8.092,8.092,0,0,0,5.71,2.318A8.306,8.306,0,0,0,49,37.1a7.656,7.656,0,0,1,1.382-.352L39.217,47.837a6.271,6.271,0,0,0,0,8.914,6.387,6.387,0,0,0,8.976,0l6.288-6.245,1.332,1.323.109.11,0,0,.045.043L74.521,70.412a2.131,2.131,0,0,1,0,3.027ZM47.645,85.5a2.512,2.512,0,1,1,0-3.553A2.524,2.524,0,0,1,47.645,85.5ZM37.5,77.97a2.529,2.529,0,1,1,2.528,2.513A2.52,2.52,0,0,1,37.5,77.97Zm-3.41-3.318a2.511,2.511,0,1,1,2.53-2.511A2.52,2.52,0,0,1,34.088,74.652Zm-5.818-5.939A2.511,2.511,0,1,1,30.8,66.2,2.519,2.519,0,0,1,28.271,68.713ZM16.19,46.556l-7.369-7.32L28.4,19.794l7.369,7.32Zm91.34-8.446L85.756,16.5a1.591,1.591,0,0,0-2.238,0L73.91,26.045a1.565,1.565,0,0,0,0,2.223L75,29.355l-3.186,3.051a4.974,4.974,0,0,1-5.52.962,13.84,13.84,0,0,0-5.644-1.21,13.7,13.7,0,0,0-6.543,1.659,10.752,10.752,0,0,0-6.194.329,4.952,4.952,0,0,1-5.225-1.092l-4.216-4.186.647-.644a1.563,1.563,0,0,0,0-2.222l-9.607-9.542a1.588,1.588,0,0,0-2.239,0L5.462,38.125a1.566,1.566,0,0,0,0,2.222l9.609,9.544a1.589,1.589,0,0,0,2.237,0l1.1-1.111,3.2,3.269c.7.7,1.712,1.355,1.889,2.308a37.733,37.733,0,0,0,1.894,6.953A5.649,5.649,0,0,0,28.279,71.84l.132,0-.006.286A5.674,5.674,0,0,0,34.1,77.78l.25-.006,0,.179a5.675,5.675,0,0,0,5.692,5.656l.132,0a5.618,5.618,0,0,0,1.662,4.121,5.721,5.721,0,0,0,8.055,0l.259-.278A5.323,5.323,0,0,0,55.656,86.2a5.245,5.245,0,0,0,1.2-1.832l.332.281a4.977,4.977,0,0,0,8.581-2.019,6.533,6.533,0,0,0,3.4,1.282,5.391,5.391,0,0,0,3.763-1.546,4.366,4.366,0,0,0,1.542-3.483,7.815,7.815,0,0,0-.41-1.779,5.3,5.3,0,0,0,4.25-5.177,4.988,4.988,0,0,0-.521-2.281l1.492-1.482c3.619-3.595,7.194-6.868,8.1-11.871a4.258,4.258,0,0,1,1.209-2.25l5.7-5.551,1.386,1.386a1.591,1.591,0,0,0,2.238,0l9.607-9.542a1.563,1.563,0,0,0,0-2.223Z" transform="translate(-5 -16)" fill="#131313" fill-rule="evenodd"/>
        </g>
      </g>
    </g>
    <g id="Group_764" data-name="Group 764" transform="translate(-168.877 1206.243)">
      <text id="Confidentiality" transform="translate(690.876 4414.145)" fill="#131313" font-size="20" font-family="Muli-Bold, Muli" font-weight="700"><tspan x="-69.78" y="0">Confidentiality</tspan></text>
      <g id="noun_confidential_3996690" transform="translate(657.273 4296.915)">
        <g id="Group_707" data-name="Group 707" transform="translate(0 0)">
          <path id="Path_4475" data-name="Path 4475" d="M95.392,55.4H77.558a9.893,9.893,0,0,1-4.33-1.009l-6.5-3.192A11.776,11.776,0,0,0,61.565,50H37.741a5.411,5.411,0,0,0-5.26,5.537V81.294H30.5A3.136,3.136,0,0,0,27.453,84.5v29.712a5.137,5.137,0,0,0,4.994,5.258H96.221c.058,0,.11,0,.163-.005a4.651,4.651,0,0,0,4.27-4.749V60.943A5.411,5.411,0,0,0,95.392,55.4Zm-62.945,62a3.116,3.116,0,0,1-3.029-3.189V84.5A1.115,1.115,0,0,1,30.5,83.36h8.133c.061,0,.119-.017.18-.018a.868.868,0,0,0,.94-.1,8.721,8.721,0,0,0,5.239-2.658l3.681-3.877a1.271,1.271,0,0,1,.925-.4H75.212a1.282,1.282,0,0,1,1.03.529l3.583,4.808a5.118,5.118,0,0,0,7.769.377,2.371,2.371,0,0,1,1.771-.787,2.461,2.461,0,0,1,2.423,2.5l0,31.074a4.8,4.8,0,0,0,.75,2.6H32.447ZM40.2,81.093v-19l48.612-.073V79.227a4.331,4.331,0,0,0-2.636,1.364,3.16,3.16,0,0,1-4.807-.223l-3.583-4.807a3.192,3.192,0,0,0-2.574-1.32H49.6a3.168,3.168,0,0,0-2.315,1.009L43.6,79.126A6.874,6.874,0,0,1,40.2,81.093Zm58.49,33.625a2.614,2.614,0,0,1-2.375,2.685,2.414,2.414,0,0,1-1.807-.727,2.649,2.649,0,0,1-.753-1.872l0-31.074a4.543,4.543,0,0,0-2.976-4.3V60.983a1.065,1.065,0,0,0-.29-.732.951.951,0,0,0-.692-.3h0l-50.577.076a1.008,1.008,0,0,0-.98,1.033V81.294H34.446V55.537a3.39,3.39,0,0,1,3.295-3.471H61.565a9.876,9.876,0,0,1,4.33,1.011l6.5,3.19a11.776,11.776,0,0,0,5.159,1.2H95.392a3.392,3.392,0,0,1,3.3,3.472Z" transform="translate(-27.453 -50)" fill="#131313"/>
          <path id="Path_4476" data-name="Path 4476" d="M183.219,232.438h-.161v-3.362c0-6.582-5.088-11.937-11.34-11.937s-11.337,5.355-11.337,11.937v3.362h-.161a1.691,1.691,0,0,0-1.644,1.73V252.75a1.693,1.693,0,0,0,1.644,1.733h23a1.693,1.693,0,0,0,1.644-1.733V234.168A1.691,1.691,0,0,0,183.219,232.438Zm-20.872-3.362a9.386,9.386,0,1,1,18.747,0v3.362h-1.55V228.82a7.833,7.833,0,1,0-15.646,0v3.618h-1.55v-3.362Zm15.231-.256v3.618H165.862V228.82a5.866,5.866,0,1,1,11.716,0Zm5.32,23.594H160.542V234.5H182.9Z" transform="translate(-137.578 -188.956)" fill="#131313"/>
          <path id="Path_4477" data-name="Path 4477" d="M220.476,347.226a1.011,1.011,0,0,0,.982,1.034h2.773a1.011,1.011,0,0,0,.982-1.034v-2.869a3.665,3.665,0,0,0,1.026-2.551,3.4,3.4,0,1,0-6.789,0,3.665,3.665,0,0,0,1.026,2.551Zm2.368-6.926a1.472,1.472,0,0,1,1.431,1.506,1.53,1.53,0,0,1-.609,1.226,1.054,1.054,0,0,0-.417.845v2.314h-.808v-2.314a1.053,1.053,0,0,0-.417-.845,1.53,1.53,0,0,1-.609-1.226A1.471,1.471,0,0,1,222.843,340.3Z" transform="translate(-188.703 -289.631)" fill="#131313"/>
          <path id="Path_4478" data-name="Path 4478" d="M153.576,143.1h31.2a1.035,1.035,0,0,0,0-2.067h-31.2a1.035,1.035,0,0,0,0,2.067Z" transform="translate(-132.553 -125.68)" fill="#131313"/>
          <path id="Path_4479" data-name="Path 4479" d="M153.576,168.012h17.989a1.035,1.035,0,0,0,0-2.067H153.576a1.035,1.035,0,0,0,0,2.067Z" transform="translate(-132.553 -146.394)" fill="#131313"/>
        </g>
      </g>
    </g>
    <g id="Group_773" data-name="Group 773" transform="translate(-47.001 1205.147)">
      <g id="Group_767" data-name="Group 767" transform="translate(-140 -15.94)">
        <g id="Group_763" data-name="Group 763" transform="translate(10 -22)">
          <text id="Straightforwardness" transform="translate(705 4697.424)" fill="#131313" font-size="20" font-family="Muli-Bold, Muli" font-weight="700"><tspan x="-99.11" y="0">Straightforwardness</tspan></text>
          <g id="noun_fast_handbag_2884084" data-name="noun_fast handbag_2884084" transform="translate(665.572 4583.304)">
            <path id="Path_4480" data-name="Path 4480" d="M96.21,61.989,86.188,31.521A5.933,5.933,0,0,0,78.7,27.78l-16.57,5.345-.134-.4a6.309,6.309,0,0,0-3.073-3.608,5.765,5.765,0,0,0-4.677-.4l-7.884,2.539a6.294,6.294,0,0,0-4.009,7.884l.134.4-16.57,5.479A5.933,5.933,0,0,0,22.18,52.5l9.889,30.468a6.812,6.812,0,0,0,2.94,3.474,6.083,6.083,0,0,0,2.673.668,9.023,9.023,0,0,0,1.871-.267L92.335,69.472A5.9,5.9,0,0,0,96.21,61.989ZM47.035,33.258l7.884-2.539a3.953,3.953,0,0,1,1.336-.267,4.716,4.716,0,0,1,1.871.4,3.98,3.98,0,0,1,2,2.405l.134.4L44.5,38.871l-.134-.4A4.146,4.146,0,0,1,47.035,33.258ZM24.184,51.833a3.787,3.787,0,0,1,2.405-4.811l16.57-5.479L62.8,35.129l16.57-5.479a3.7,3.7,0,0,1,1.2-.134,3.851,3.851,0,0,1,3.608,2.673l3.341,10.022L74.7,46.488,72.558,39.94a2.454,2.454,0,0,0-3.073-1.6l-2.673.935a3.267,3.267,0,0,0-1.47,1.2,2.26,2.26,0,0,0-.134,1.871l2.138,6.548L47.7,55.307l-2.138-6.548a3.267,3.267,0,0,0-1.2-1.47,2.26,2.26,0,0,0-1.871-.134l-2.673.935a3.267,3.267,0,0,0-1.47,1.2,2.26,2.26,0,0,0-.134,1.871l2.138,6.548L27.391,61.855Zm51.447,4.41-3.341,1.069-2,.668h-.267c-.267.134-.4,0-.668,0-.267-.134-.4-.267-.4-.535-.134-.267,0-.4,0-.668.134-.267.267-.4.535-.4h.267l2-.668L75.1,54.639l2-.668h.535a.819.819,0,0,1,.267,1.6h-.267Zm.668,3.474a1.845,1.845,0,0,1-.4.535c-.134.134-.4.267-.535.4a1.982,1.982,0,0,1-2.272-1.069V59.45l3.341-1.069v.134A1.887,1.887,0,0,1,76.3,59.717ZM69.351,48.091l-2.138-6.548c0-.134,0-.4.267-.4l2.673-.935h.134a.287.287,0,0,1,.267.267l2.138,6.548Zm4.009.935,1.2,3.608L71.222,53.7l-1.2-3.608ZM48.638,65.062,45.3,66.131l-2,.668h-.267a.845.845,0,0,1-.535-1.6h.267l2-.668L48.1,63.459l2-.668.267-.134h.267a.491.491,0,0,1,.4.134c.267.134.4.267.4.535a.909.909,0,0,1-.535,1.069h-.267Zm.668,3.608a2.476,2.476,0,0,1-1.069.935,1.581,1.581,0,0,1-1.336-.134,2.476,2.476,0,0,1-.935-1.069v-.134L49.306,67.2v.134C49.574,67.735,49.44,68.136,49.306,68.67ZM42.358,56.911,40.22,50.363c0-.134,0-.4.267-.4l2.673-.935h.134a.287.287,0,0,1,.267.267L45.7,55.842Zm4.009.935,1.2,3.608-3.341,1.069-1.2-3.608Zm-7.35,26.86a3.786,3.786,0,0,1-2.94-.267,3.244,3.244,0,0,1-1.871-2.272L28.193,63.726,41.021,59.45l1.2,3.608h-.267A2.888,2.888,0,0,0,40.086,66.8a3.015,3.015,0,0,0,2.806,2,2.274,2.274,0,0,0,.935-.134h.267V68.8a3.951,3.951,0,0,0,3.742,2.673,3.7,3.7,0,0,0,1.2-.134,4.132,4.132,0,0,0,2.272-2,3.786,3.786,0,0,0,.267-2.94v-.134l.267-.134a2.888,2.888,0,0,0,1.871-3.742,3.16,3.16,0,0,0-1.47-1.737,2.682,2.682,0,0,0-2.272-.134h-.267l-1.2-3.608L68.148,50.5l1.2,3.608h-.267a3.16,3.16,0,0,0-1.737,1.47,2.682,2.682,0,0,0-.134,2.272,3.16,3.16,0,0,0,1.47,1.737,2.409,2.409,0,0,0,1.336.267,2.274,2.274,0,0,0,.935-.134h.267v.134a3.892,3.892,0,0,0,3.742,2.673,3.7,3.7,0,0,0,1.2-.134,4.45,4.45,0,0,0,2.272-1.871,3.786,3.786,0,0,0,.267-2.94v-.134h.267A2.958,2.958,0,0,0,77.1,51.833h-.267l-1.2-3.608L88.46,43.949l5.746,18.708A3.787,3.787,0,0,1,91.8,67.468Z" transform="translate(-21.863 -27.463)" fill="#131313"/>
            <path id="Path_4481" data-name="Path 4481" d="M89.069,71h-45.3a1.069,1.069,0,1,0,0,2.138h45.3a1.069,1.069,0,1,0,0-2.138Z" transform="translate(-14.856 -12.822)" fill="#131313"/>
            <path id="Path_4482" data-name="Path 4482" d="M85.572,67.9h-31.4a1.069,1.069,0,0,0,0,2.138h31.4a1.069,1.069,0,1,0,0-2.138Z" transform="translate(-11.358 -13.864)" fill="#131313"/>
            <path id="Path_4483" data-name="Path 4483" d="M63.669,64.7a1.069,1.069,0,0,0,0,2.138H82.244a1.069,1.069,0,1,0,0-2.138Z" transform="translate(-8.164 -14.941)" fill="#131313"/>
          </g>
        </g>
      </g>
    </g>
    <g id="Group_768" data-name="Group 768" transform="translate(-3.504 1205.147)">
      <text id="Customer_Focus" data-name="Customer Focus" transform="translate(246.503 4659.864)" fill="#131313" font-size="20" font-family="Muli-Bold, Muli" font-weight="700"><tspan x="-76.05" y="0">Customer Focus</tspan></text>
      <g id="target" transform="translate(208.33 4530.24)">
        <path id="Path_4556" data-name="Path 4556" d="M67.271,19.407a1.593,1.593,0,0,0,1.538-.412l9.648-9.649a1.591,1.591,0,0,0-.714-2.663L71.53,5.017,69.864-1.2a1.591,1.591,0,0,0-1.125-1.126,1.591,1.591,0,0,0-1.537.413L57.553,7.739a1.591,1.591,0,0,0-.412,1.537l1.664,6.214-.034.035a36.609,36.609,0,0,0-48.837-.572,1.592,1.592,0,0,0,2.1,2.4,33.4,33.4,0,0,1,44.478.439l-2.254,2.254a30.278,30.278,0,1,0,2.251,2.251l2.254-2.254A33.418,33.418,0,1,1,5.086,25.8a1.592,1.592,0,0,0-2.757-1.592,36.612,36.612,0,1,0,58.695-6.43l.034-.035Zm-.064-3.313-3.551-.951,7.05-7.049,3.551.951Zm.3-13.8.951,3.551-7.049,7.049-.951-3.551ZM61.1,42.513A27.095,27.095,0,1,1,52,22.3L49.747,24.55a23.869,23.869,0,1,0,.049,35.9,1.592,1.592,0,1,0-2.1-2.391,20.7,20.7,0,1,1-.2-31.251l-2.258,2.258a17.537,17.537,0,1,0,2.251,2.251l2.258-2.258a20.658,20.658,0,0,1,3.965,19.872,1.592,1.592,0,0,0,3.027.988A23.841,23.841,0,0,0,52,26.8l2.254-2.254A26.95,26.95,0,0,1,61.1,42.513Zm-22.285,0A4.776,4.776,0,1,1,36.092,38.2l-3.183,3.183a1.592,1.592,0,0,0,2.251,2.251l3.183-3.183a4.742,4.742,0,0,1,.467,2.057Zm-.39-6.637a7.965,7.965,0,1,0,2.252,2.251l4.551-4.551a14.337,14.337,0,1,1-2.251-2.251Zm0,0" fill="#131313" stroke="#fff" stroke-width="1"/>
        <path id="Path_4557" data-name="Path 4557" d="M109.412,336.248a1.592,1.592,0,0,0,2.233-.283l.032-.041a1.592,1.592,0,0,0-2.522-1.944l-.027.034A1.593,1.593,0,0,0,109.412,336.248Zm0,0" transform="translate(-104.106 -313.832)" fill="#131313" stroke="#fff" stroke-width="1"/>
        <path id="Path_4558" data-name="Path 4558" d="M830.168,838.533a1.592,1.592,0,1,1-1.592-1.592A1.591,1.591,0,0,1,830.168,838.533Zm0,0" transform="translate(-775.44 -784.56)" fill="#131313" stroke="#fff" stroke-width="1"/>
      </g>
    </g>
    <path id="Path_4566" data-name="Path 4566" d="M12109.661,262.935V661.87" transform="translate(-11728 5221.147)" fill="none" stroke="#131313" stroke-width="1"/>
    <path id="Path_4573" data-name="Path 4573" d="M12109.661,262.935v551" transform="translate(945.935 -6421.111) rotate(90)" fill="none" stroke="#131313" stroke-width="1"/>
  </g>
</svg>
